<?xml version="1.0" encoding="utf-8"?>
<svg viewBox="90 143 32 32" width="32" height="32" xmlns="http://www.w3.org/2000/svg">
  <path stroke-width="0" d="M 102.932 143.626 C 105.782 143.144 110.17 143.685 112.779 144.72 C 114.999 145.602 116.578 147.097 117.976 148.823 C 119.433 150.622 120.723 153.149 121.258 155.388 C 121.77 157.529 121.931 159.67 121.258 161.952 C 120.464 164.647 118.185 168.449 116.061 170.432 C 114.18 172.187 111.736 173.179 109.497 173.714 C 107.355 174.225 105.215 174.387 102.932 173.714 C 100.237 172.919 96.436 170.641 94.453 168.517 C 92.697 166.636 91.706 164.192 91.171 161.952 C 90.659 159.811 90.498 157.67 91.171 155.388 C 91.965 152.693 94.244 148.891 96.368 146.909 C 98.249 145.153 100.404 144.054 102.932 143.626 Z" style="stroke-width: 2px; paint-order: stroke;"/>
  <path d="M 106.192 147.434 C 114.372 147.434 118.462 151.331 118.462 159.124 C 118.462 166.924 114.372 170.824 106.192 170.824 L 96.062 170.824 L 96.062 147.434 L 106.192 147.434 Z M 103.572 153.044 L 103.572 165.214 L 106.052 165.214 C 109.205 165.214 110.782 163.524 110.782 160.144 L 110.782 158.104 C 110.782 154.731 109.205 153.044 106.052 153.044 L 103.572 153.044 Z" transform="matrix(1, 0, 0, 1, 0, 0)" style="fill: rgb(138, 185, 255); text-transform: uppercase; white-space: pre;"/>
</svg>